<svg xmlns:xlink="http://www.w3.org/1999/xlink" xmlns="http://www.w3.org/2000/svg" width="96" height="21" viewBox="0 0 96 21" fill="none"><path fill-rule="evenodd" clip-rule="evenodd" d="M63.6377 0.528274C64.2405 0.528274 64.7295 1.01585 64.7295 1.61703C64.7295 2.21822 64.2405 2.7058 63.6377 2.7058C63.0346 2.7058 62.5464 2.21822 62.5464 1.61703C62.5464 1.01585 63.0346 0.528274 63.6377 0.528274ZM62.7999 13.4204H64.4743V4.50145H62.7999V13.4204ZM65.9723 4.50145H67.3918L67.5644 5.60443C68.7132 4.28108 70.0896 3.99179 71.1319 4.54459L70.5596 6.03045C69.5161 5.4582 68.5994 5.9826 67.6424 6.95459V13.4198H65.9723V4.50145ZM74.4705 5.6102C75.7567 5.6102 76.4465 6.85202 76.4465 8.04388L72.44 8.05335C72.44 6.67424 73.3362 5.6102 74.4705 5.6102ZM74.4532 4.29002C76.9019 4.29002 78.1544 6.16194 78.1649 8.7024C78.1658 9.02114 78.1623 8.98012 78.1623 9.29728H72.428C72.5215 10.1614 72.7032 10.8662 73.2515 11.3964C74.1795 12.2953 75.5961 12.4952 77.466 11.5679L77.9677 12.7313C76.5737 13.6602 73.948 13.9484 72.4116 12.7603C71.3957 12.0328 70.7422 10.6164 70.7422 8.90806C70.7422 6.02782 72.3463 4.29002 74.4532 4.29002ZM8.15104 14.4608C12.0884 16.7515 16.9582 18.1305 21.9869 18.1305C25.3797 18.1305 29.1087 17.4268 32.5404 15.972C33.0583 15.7526 33.492 16.3128 32.9856 16.6867C29.9248 18.9447 25.4871 20.1455 21.6654 20.1455C16.31 20.1455 11.4876 18.1668 7.83743 14.8727C7.55119 14.6139 7.8064 14.2604 8.15104 14.4608ZM35.5655 14.2364C35.9016 14.6519 35.477 17.5295 33.8354 18.9023C33.5828 19.1132 33.3422 19.0007 33.4544 18.7219C33.8237 17.7993 34.6515 15.7344 34.2594 15.2331C33.8673 14.7319 31.6716 14.9954 30.6846 15.1137C30.3857 15.1495 30.3394 14.8886 30.6087 14.6993C32.3611 13.4695 35.2323 13.8246 35.5655 14.2364ZM41.3387 4.35525C43.7592 4.35525 45.0694 6.43283 45.0694 9.07322C45.0694 11.6242 43.6224 13.6491 41.3387 13.6491C38.9657 13.6491 37.6713 11.5716 37.6713 8.98378C37.6713 6.38023 38.9815 4.35525 41.3387 4.35525ZM25.5952 4.27613C26.3898 4.27613 27.4264 4.48654 28.0525 5.08613C28.847 5.82776 28.7681 6.81657 28.7681 7.89481V10.43C28.7681 11.1979 29.0891 11.5293 29.3837 11.9395C29.489 12.0921 29.51 12.2656 29.3785 12.3761C29.047 12.6549 28.4577 13.1703 28.1314 13.4596L28.1262 13.4543C28.0157 13.549 27.8631 13.5595 27.742 13.4912C27.2001 13.0441 27.1001 12.8337 26.8055 12.4076C25.9109 13.3176 25.2743 13.5911 24.1167 13.5911C22.7433 13.5911 21.6752 12.7443 21.6752 11.0507C21.6752 9.7252 22.3961 8.82577 23.4168 8.38398C24.3008 8.00001 25.5373 7.92637 26.4845 7.82117L26.4847 7.53707C26.4868 7.16484 26.4967 6.74295 26.2845 6.42735C26.0846 6.12757 25.7063 6.00657 25.369 6.00657C24.7481 6.00657 24.1956 6.32218 24.0588 6.98489C24.0272 7.13217 23.922 7.27418 23.7746 7.2847L22.1961 7.11113C22.0593 7.07957 21.912 6.97437 21.9488 6.76924C22.3119 4.85471 24.043 4.27613 25.5952 4.27613ZM4.22186 4.27613C5.01638 4.27613 6.05296 4.48654 6.6791 5.08613C7.46837 5.82776 7.3947 6.81657 7.3947 7.89481V10.43C7.3947 11.1979 7.71043 11.5293 8.01032 11.9395C8.11559 12.0921 8.13663 12.2656 8.00508 12.3761C7.67359 12.6549 7.07901 13.1703 6.75277 13.4596V13.4543C6.64226 13.549 6.48443 13.5595 6.3634 13.4912C5.82142 13.0441 5.72671 12.8337 5.43206 12.4076C4.53755 13.3176 3.90089 13.5911 2.74329 13.5911C1.36996 13.5911 0.301819 12.7443 0.301819 11.0507C0.301819 9.7252 1.01742 8.82577 2.03821 8.38398C2.92745 8.00001 4.15871 7.92637 5.10582 7.82117V7.61079C5.10582 7.22158 5.13741 6.76396 4.90588 6.42735C4.71121 6.12757 4.32709 6.00657 3.9956 6.00657C3.36943 6.00657 2.81695 6.32218 2.68015 6.98489C2.65384 7.13217 2.5486 7.27418 2.40127 7.2847L0.817475 7.11113C0.685928 7.07957 0.538599 6.97437 0.575432 6.76924C0.938495 4.85471 2.66962 4.27613 4.22186 4.27613ZM50.6557 4.35666C51.3865 4.35666 52.1015 4.62069 52.5587 5.34233C52.9845 6.01138 52.9845 7.13747 52.9845 7.94747V13.2119C52.9666 13.3597 52.8335 13.4749 52.6718 13.4749H51.0375C50.8866 13.4649 50.7644 13.3545 50.7471 13.2119V8.66961C50.7471 7.75444 50.8541 6.41636 49.7279 6.41636C49.3317 6.41636 48.966 6.68039 48.784 7.08487C48.5557 7.59559 48.5253 8.10577 48.5253 8.66961V13.174C48.5226 13.3408 48.3814 13.4749 48.2079 13.4749H46.583C46.4198 13.4644 46.2905 13.335 46.2905 13.1746L46.2879 4.80636C46.3014 4.65278 46.4367 4.53339 46.6009 4.53339L48.1132 4.53287C48.2557 4.54022 48.3732 4.63701 48.4031 4.76692V6.04607H48.4341C48.8904 4.9021 49.5295 4.35666 50.6557 4.35666ZM17.9572 4.35666C18.6423 4.35666 19.3879 4.63807 19.8441 5.27186C20.3619 5.97612 20.2561 6.99705 20.2561 7.89487L20.254 13.174C20.254 13.3408 20.1135 13.4749 19.9399 13.4749H18.3113C18.1472 13.4644 18.0188 13.335 18.0188 13.1746L18.0183 8.73959C18.0183 8.38823 18.0482 7.50776 17.9725 7.17323C17.8504 6.60991 17.4853 6.45108 17.0138 6.45108C16.6181 6.45108 16.2066 6.71511 16.0393 7.13747C15.872 7.56036 15.8872 8.2641 15.8872 8.73959V13.174C15.8872 13.3408 15.7462 13.4749 15.5731 13.4749H13.9441C13.7804 13.4644 13.651 13.335 13.651 13.1746L13.6494 8.73959C13.6494 7.80704 13.8015 6.43371 12.6454 6.43371C11.4731 6.43371 11.5189 7.77126 11.5189 8.73959L11.5184 13.174C11.5184 13.3408 11.3774 13.4749 11.2037 13.4749H9.57308C9.41786 13.4649 9.29423 13.3487 9.2816 13.1993L9.28318 4.8337C9.28318 4.66646 9.42366 4.53339 9.59729 4.53339L11.1159 4.53287C11.2747 4.54075 11.4021 4.66066 11.4121 4.81372V5.90565H11.4431C11.8388 4.8495 12.5844 4.35666 13.5889 4.35666C14.6086 4.35666 15.2479 4.8495 15.7046 5.90565C16.1003 4.8495 16.9985 4.35666 17.9572 4.35666ZM61.684 0.382052L61.3317 1.73064C60.3228 1.34405 59.0662 1.3388 59.0662 2.9893V4.48041H61.352L60.915 5.83584H59.0662V13.4198H57.3766V5.83584H56.1812V4.48041H57.3766V2.85938C57.3766 1.77746 57.8117 1.00165 58.4652 0.535638C59.3461 -0.0997367 60.7767 -0.0623927 61.684 0.382052ZM87.7415 1.46669L91.0939 12.2833L94.4636 1.46669H95.5402L91.6671 13.3598H90.5034L86.6127 1.46669H87.7415ZM85.8136 1.46669L85.1659 2.38688H82.201V13.3598H81.1762V2.38688H78.1763L77.6503 1.46669H85.8136ZM36.4171 4.51062C36.5879 4.51062 36.7262 4.63525 36.7262 4.81199V5.8371C36.7242 6.00912 36.5797 6.23371 36.3227 6.58978L33.5462 10.5519C34.5765 10.5277 35.6666 10.6824 36.6032 11.2083C36.8142 11.3272 36.871 11.5024 36.8874 11.6749V12.9504C36.8874 13.126 36.6955 13.3296 36.4927 13.2233C34.8432 12.3597 32.6541 12.2655 30.83 13.2344C30.6433 13.3332 30.4484 13.1329 30.4484 12.9567V11.7448C30.4484 11.5507 30.4522 11.2189 30.648 10.9232L33.8644 6.31048L31.0635 6.30996C30.8927 6.30996 30.7552 6.18793 30.7544 6.00909V4.81357C30.7552 4.63159 30.8921 4.51062 31.0574 4.51115L36.4171 4.51062ZM26.4845 9.12558C25.3006 9.12558 24.0588 9.37807 24.0588 10.7666C24.0588 11.4714 24.4219 11.9501 25.0485 11.9501C25.5058 11.9501 25.9162 11.666 26.174 11.2084C26.4955 10.6456 26.4845 10.1144 26.4845 9.47799V9.12558ZM5.10582 9.12558C3.92718 9.12558 2.68015 9.37807 2.68015 10.7666C2.68015 11.4714 3.04847 11.9501 3.67463 11.9501C4.13239 11.9501 4.54283 11.666 4.80064 11.2084C5.12161 10.6456 5.10582 10.1144 5.10582 9.47799V9.12558ZM41.3545 6.06465C40.1548 6.06465 40.076 7.70041 40.076 8.72081V8.88503C40.0778 9.95753 40.1252 11.924 41.3387 11.924C42.6014 11.924 42.6647 10.1672 42.6647 9.09423C42.6647 8.38943 42.6331 7.54263 42.4227 6.87465C42.2383 6.29082 41.8703 6.06465 41.3545 6.06465Z" fill="white"/></svg>