<svg xmlns:xlink="http://www.w3.org/1999/xlink" xmlns="http://www.w3.org/2000/svg" width="66" height="16" viewBox="0 0 66 16" fill="none"><path fill-rule="evenodd" clip-rule="evenodd" d="M0.0791626 9.91641C0.0791626 9.17098 0.203391 8.47548 0.451845 7.82981C0.700299 7.18433 1.04809 6.62183 1.49533 6.14265C1.94258 5.66344 2.4776 5.28738 3.10041 5.0146C3.7232 4.74167 4.40557 4.60513 5.14759 4.60513C5.71086 4.60513 6.22265 4.68841 6.68312 4.85471C7.14356 5.02116 7.58915 5.2941 8.01971 5.67336V4.80484H10.5441V15.0281H8.01971V14.1594C7.58915 14.5389 7.14356 14.8118 6.68312 14.9781C6.22265 15.1445 5.71086 15.2277 5.14759 15.2277C4.40557 15.2277 3.72308 15.0913 3.10041 14.8184C2.4776 14.5456 1.94258 14.1695 1.49533 13.6903C1.04809 13.211 0.700299 12.6486 0.451845 12.003C0.203391 11.3575 0.0791626 10.662 0.0791626 9.91641ZM5.47562 12.8416C5.67441 12.8416 5.88307 12.8201 6.10176 12.7768C6.32031 12.7335 6.54067 12.6602 6.76269 12.5571C6.98457 12.4539 7.20157 12.3159 7.41358 12.1427C7.62559 11.9697 7.8276 11.7567 8.01971 11.5038V8.32901C7.8276 8.07619 7.62559 7.86489 7.41358 7.69512C7.20145 7.52546 6.98457 7.38725 6.76254 7.28074C6.54052 7.17426 6.32031 7.09935 6.10161 7.05617C5.88307 7.01286 5.67426 6.99133 5.47562 6.99121C5.08471 6.99121 4.71857 7.06442 4.37747 7.21088C4.03608 7.35734 3.73965 7.56205 3.48799 7.82494C3.23617 8.0878 3.03907 8.39733 2.89662 8.75343C2.75416 9.10949 2.68293 9.49716 2.68293 9.91641C2.68293 10.3358 2.75416 10.7234 2.89662 11.0795C3.03907 11.4356 3.23617 11.7452 3.48799 12.008C3.73977 12.271 4.03623 12.4756 4.37733 12.6221C4.71869 12.7684 5.08471 12.8416 5.47562 12.8416ZM16.8542 7.12888C15.6582 7.13767 14.619 7.975 14.619 9.21767V15.0281H12.0947V9.28753C12.1088 6.89373 14.1724 4.63735 16.818 4.60513H16.8886C19.5342 4.63735 21.5979 6.89373 21.612 9.28753V15.0281H19.0877V9.21767C19.0877 7.975 18.0486 7.13767 16.8524 7.12888H16.8542ZM22.8069 9.91641C22.8069 9.17098 22.9311 8.47548 23.1796 7.82981C23.428 7.18433 23.7759 6.62183 24.2231 6.14265C24.6703 5.66344 25.2053 5.28738 25.8281 5.0146C26.4509 4.74167 27.1333 4.60513 27.8755 4.60513C28.4386 4.60513 28.952 4.68841 29.4158 4.85471C29.8797 5.02116 30.3234 5.29074 30.7476 5.66344V1.73988H33.272V15.0281H30.7476V14.1695C30.3234 14.5488 29.8797 14.82 29.4158 14.9831C28.952 15.1462 28.4386 15.2277 27.8755 15.2277C27.1333 15.2277 26.4509 15.0913 25.8281 14.8184C25.2053 14.5456 24.6703 14.1695 24.2231 13.6903C23.7759 13.2111 23.428 12.6486 23.1797 12.003C22.9311 11.3575 22.8069 10.662 22.8069 9.91641ZM28.2033 12.8416C28.4021 12.8416 28.6108 12.8201 28.8295 12.7768C29.048 12.7335 29.2684 12.6602 29.4904 12.5571C29.7122 12.4539 29.9293 12.3159 30.1414 12.1427C30.3534 11.9697 30.5554 11.7567 30.7476 11.5038V8.32901C30.5554 8.07619 30.3534 7.86489 30.1414 7.69512C29.9293 7.52546 29.7122 7.38725 29.4904 7.28074C29.2684 7.17426 29.048 7.09935 28.8295 7.05617C28.6108 7.01286 28.4021 6.99133 28.2033 6.99121C27.8124 6.99121 27.4464 7.06442 27.1052 7.21088C26.764 7.35734 26.4674 7.56205 26.2158 7.82494C25.9639 8.0878 25.7668 8.39733 25.6243 8.75343C25.4819 9.10949 25.4107 9.49716 25.4108 9.91641C25.4108 10.3358 25.4819 10.7234 25.6243 11.0795C25.7668 11.4356 25.9639 11.7452 26.2157 12.008C26.4675 12.271 26.764 12.4756 27.1052 12.6221C27.4464 12.7684 27.8124 12.8416 28.2033 12.8416ZM45.093 12.8416C45.4706 12.8416 45.8267 12.7701 46.1614 12.627C46.4908 12.4875 46.7884 12.282 47.0359 12.023C47.2845 11.7635 47.4799 11.4556 47.6225 11.0995C47.7647 10.7434 47.836 10.3492 47.836 9.91641C47.836 9.49045 47.7633 9.09943 47.6174 8.74336C47.4716 8.38729 47.2729 8.07943 47.021 7.81989C46.7715 7.5619 46.4745 7.35506 46.1466 7.21088C45.8154 7.06442 45.464 6.99133 45.093 6.99121C44.7155 6.99121 44.3594 7.06442 44.0247 7.21088C43.6956 7.35342 43.3985 7.56048 43.1502 7.81989C42.9016 8.07943 42.7047 8.38729 42.5589 8.74336C42.413 9.09943 42.3403 9.49045 42.3403 9.91653C42.3403 10.3491 42.4113 10.7434 42.5538 11.0995C42.6964 11.4556 42.8918 11.7635 43.1401 12.023C43.3879 12.2819 43.6855 12.4875 44.0149 12.627C44.3493 12.7701 44.7087 12.8416 45.093 12.8416ZM45.093 15.2277C44.3576 15.2277 43.6653 15.0946 43.016 14.8284C42.3667 14.5622 41.7985 14.1911 41.3117 13.7152C40.8246 13.2393 40.4402 12.6769 40.1587 12.028C39.8771 11.379 39.7366 10.6752 39.7366 9.91641C39.7366 9.17769 39.8771 8.4854 40.1587 7.83988C40.4405 7.19425 40.8231 6.6319 41.3066 6.15269C41.7902 5.67336 42.3584 5.29576 43.0109 5.0195C43.6635 4.74333 44.3576 4.60513 45.093 4.60513C45.8285 4.60513 46.5208 4.74333 47.1701 5.0195C47.8194 5.29576 48.3858 5.67336 48.8697 6.15269C49.3532 6.6319 49.7358 7.19437 50.0173 7.83988C50.2989 8.48551 50.4397 9.17769 50.4397 9.91641C50.4397 10.6752 50.2989 11.379 50.0173 12.028C49.7358 12.6769 49.3514 13.2393 48.8646 13.7152C48.3775 14.1911 47.8111 14.5622 47.1651 14.8284C46.5193 15.0946 45.8285 15.2277 45.093 15.2277ZM52.8331 4.00438C52.6284 4.00438 52.4351 3.96428 52.253 3.88396C52.0742 3.80597 51.9114 3.69489 51.7736 3.5565C51.6358 3.41796 51.5253 3.25461 51.4478 3.07498C51.3676 2.89129 51.3269 2.69278 51.3278 2.49226C51.3278 2.28689 51.3679 2.09106 51.4478 1.9049C51.5244 1.72339 51.6352 1.55833 51.7736 1.41861C51.9117 1.28022 52.0742 1.16914 52.253 1.09115C52.436 1.01074 52.6335 0.969726 52.8331 0.970721C53.0374 0.970721 53.2326 1.01083 53.4179 1.09115C53.5985 1.16828 53.7628 1.27943 53.9018 1.41861C54.0405 1.55833 54.151 1.7234 54.2279 1.9049C54.3078 2.09106 54.3476 2.28689 54.3476 2.49239C54.3476 2.69776 54.3078 2.89204 54.2279 3.07511C54.1501 3.25469 54.0396 3.418 53.9018 3.5565C53.7628 3.69569 53.5985 3.80684 53.4179 3.88396C53.2332 3.9641 53.0342 4.00509 52.8331 4.00438ZM51.5708 4.80484H54.0951V15.0281H51.5708V4.80484ZM55.2556 9.91641C55.2556 9.17098 55.38 8.47548 55.6283 7.82981C55.8769 7.18433 56.2245 6.62183 56.6718 6.14265C57.1191 5.66344 57.654 5.28738 58.2769 5.0146C58.8997 4.74167 59.582 4.60513 60.3242 4.60513C60.8874 4.60513 61.4009 4.68841 61.8646 4.85471C62.3282 5.02116 62.7723 5.29074 63.1961 5.66344V1.73988H65.7205V15.0281H63.1961V14.1695C62.7723 14.5488 62.3282 14.82 61.8646 14.9831C61.4006 15.1462 60.8874 15.2277 60.3242 15.2277C59.582 15.2277 58.8997 15.0913 58.2769 14.8184C57.654 14.5456 57.1191 14.1695 56.6718 13.6903C56.2245 13.2111 55.8769 12.6486 55.6283 12.003C55.38 11.3575 55.2556 10.662 55.2556 9.91641ZM60.6521 12.8416C60.8508 12.8416 61.0596 12.8201 61.2783 12.7768C61.4969 12.7335 61.7169 12.6602 61.9391 12.5571C62.161 12.4539 62.3778 12.3159 62.5899 12.1427C62.802 11.9697 63.0042 11.7567 63.1961 11.5038V8.32901C63.0042 8.07619 62.802 7.86489 62.5899 7.69512C62.3778 7.52546 62.161 7.38725 61.9391 7.28074C61.7169 7.17426 61.4969 7.09935 61.2783 7.05617C61.0596 7.01286 60.8508 6.99133 60.6521 6.99121C60.2613 6.99121 59.895 7.06442 59.5541 7.21088C59.2125 7.35734 58.9161 7.56205 58.6645 7.82494C58.4126 8.0878 58.2157 8.39733 58.0731 8.75343C57.9305 9.10949 57.8596 9.49716 57.8596 9.91641C57.8596 10.3358 57.9305 10.7234 58.0731 11.0795C58.2157 11.4356 58.4126 11.7452 58.6645 12.008C58.9164 12.271 59.2128 12.4756 59.5538 12.6221C59.8953 12.7684 60.2613 12.8416 60.6521 12.8416ZM39.4957 7.09819C37.8042 7.09819 37.0581 7.975 37.0581 9.21767V15.0281H34.5337V9.28753C34.5479 6.89373 35.9243 4.54041 39.4957 4.54041V7.09819Z" fill="white"/></svg>