<svg xmlns:xlink="http://www.w3.org/1999/xlink" xmlns="http://www.w3.org/2000/svg" width="36" height="18" viewBox="0 0 36 18" fill="none"><path fill-rule="evenodd" clip-rule="evenodd" d="M12.1622 9.46343C12.1857 12.0121 14.374 12.8696 14.3975 12.8815C14.374 12.9411 14.0446 14.0963 13.2446 15.2754C12.5504 16.2996 11.8328 17.3238 10.6916 17.3477C9.57396 17.3715 9.22102 16.6807 7.93868 16.6807C6.66808 16.6807 6.26806 17.3238 5.20926 17.3715C4.12689 17.4072 3.2916 16.252 2.58572 15.2277C1.16219 13.1316 0.0680686 9.3086 1.53866 6.7361C2.26807 5.44985 3.57396 4.63999 4.98573 4.62808C6.05633 4.60426 7.07985 5.36649 7.73868 5.36649C8.3975 5.36649 9.63279 4.46135 10.9269 4.59235C11.4681 4.61617 12.9975 4.81864 13.974 6.25971C13.8916 6.30735 12.1505 7.33159 12.1622 9.46343ZM19.9676 1.14374V4.137H22.3848V5.75337H19.9792V14.1824C19.9792 14.8289 20.0844 15.2719 20.2829 15.5353C20.4814 15.7987 20.8434 15.9185 21.3455 15.9185C21.6374 15.9185 22.0461 15.8586 22.595 15.7509V17.3912C21.8827 17.5947 21.147 17.6905 20.3996 17.6905C18.6597 17.6905 17.7956 16.6847 17.7956 14.6613V5.74137H16.2892V4.12503H17.8773V2.01777L19.9676 1.14374ZM35.2064 4.00759L30.2927 17.3723H27.6941L22.9103 4.01956H25.249L28.1429 12.706C28.2492 13.041 28.5327 14.0102 28.9816 15.6254L29.4068 14.1777L29.8793 12.718L32.8796 4.00759H35.2064ZM10.9387 0.507324C11.0446 1.49583 10.6446 2.48434 10.0681 3.19892C9.49163 3.90159 8.52691 4.46135 7.59751 4.38989C7.46807 3.4252 7.93868 2.41288 8.47983 1.78166C9.09161 1.06708 10.1034 0.543053 10.9387 0.507324Z" fill="white"/></svg>