<svg xmlns:xlink="http://www.w3.org/1999/xlink" xmlns="http://www.w3.org/2000/svg" width="92" height="20" viewBox="0 0 92 20" fill="none"><path fill-rule="evenodd" clip-rule="evenodd" d="M23.5156 10.7407C23.5156 8.68771 24.9136 7.11782 26.8938 7.11782C28.4666 7.11782 29.34 8.08403 29.7484 9.05028L28.6415 9.59415C28.3504 8.8092 27.7095 8.32607 26.8361 8.32607C25.7879 8.32607 24.7973 9.29231 24.7973 10.8024C24.7973 12.2518 25.7879 13.2788 26.8361 13.2788C27.7681 13.2788 28.409 12.7956 28.7587 12.0107L29.8655 12.4938C29.4581 13.46 28.5261 14.4263 26.9533 14.4263C24.9136 14.3646 23.5156 12.7938 23.5156 10.7407ZM31.962 7.35889L31.9033 8.32514H31.962C32.3119 7.72146 33.1266 7.17759 34.0585 7.17759C35.7475 7.17759 36.5635 8.32514 36.5635 10.0156V14.1823H35.3402V10.1978C35.3402 8.8092 34.6418 8.32607 33.7099 8.32607C32.6614 8.32607 31.962 9.35308 31.962 10.4398V14.1843H30.7388V4.27888H31.962V7.35889ZM37.8452 14.1833V7.35889H39.0097V8.44568H39.0681C39.3592 7.66073 40.2914 7.17759 40.9907 7.17759C41.3981 7.17759 41.6316 7.23836 41.9226 7.35889L41.4568 8.56622C41.2818 8.50546 41.0495 8.44568 40.816 8.44568C40.0001 8.44568 39.1269 9.16987 39.1269 10.4389V14.1833H37.8452ZM48.6792 10.7407C48.6792 12.7938 47.2812 14.3636 45.3011 14.3636C43.3206 14.3636 41.9226 12.7938 41.9226 10.7407C41.9226 8.68771 43.3206 7.11782 45.3011 7.11782C47.2812 7.11782 48.6792 8.68771 48.6792 10.7407ZM47.456 10.7407C47.456 9.17082 46.4077 8.26438 45.3011 8.26438C44.1941 8.26438 43.1459 9.16987 43.1459 10.7407C43.1459 12.3116 44.1941 13.2171 45.3011 13.2171C46.4077 13.2171 47.456 12.3106 47.456 10.7407ZM49.6696 7.35889H50.8341V8.32514H50.8929C51.2427 7.66073 52.1158 7.17759 52.9317 7.17759C53.9799 7.17759 54.6793 7.66073 55.0282 8.50641C55.4943 7.72146 56.3099 7.17759 57.2996 7.17759C58.8724 7.17759 59.6296 8.32514 59.6296 10.0156V14.1823H58.3479V10.1978C58.3479 8.8092 57.8233 8.32607 56.8911 8.32607C55.9007 8.32607 55.202 9.35308 55.202 10.4398V14.1843H53.979V10.1978C53.979 8.8092 53.4545 8.32607 52.5226 8.32607C51.5319 8.32607 50.8332 9.35308 50.8332 10.4398V14.1843H49.6102V7.35985H49.6696V7.35889ZM60.5039 10.7407C60.5039 8.80825 61.7857 7.11782 63.707 7.11782C65.6296 7.11782 66.9104 8.56717 66.9104 10.7407V10.9818H61.726C61.7848 12.4312 62.7742 13.2161 63.8224 13.2161C64.5211 13.2161 65.2792 12.9143 65.6278 12.0686L66.7348 12.5517C66.3274 13.5179 65.3952 14.4235 63.8803 14.4235C61.8432 14.3646 60.5039 12.7938 60.5039 10.7407ZM63.707 8.32514C62.7751 8.32514 62.0767 8.98955 61.8432 9.95577H65.6296C65.5712 9.35212 65.105 8.32514 63.707 8.32514ZM67.61 10.7407C67.61 8.68771 69.008 7.11782 70.9882 7.11782C72.561 7.11782 73.4344 8.08403 73.8427 9.05028L72.736 9.53339C72.4446 8.74844 71.8038 8.26533 70.9306 8.26533C69.8821 8.26533 68.8917 9.23158 68.8917 10.7417C68.8917 12.191 69.8821 13.218 70.9306 13.218C71.8625 13.218 72.5034 12.7349 72.8532 11.9499L73.9599 12.4331C73.5525 13.3993 72.6206 14.3656 71.0478 14.3656C69.008 14.3646 67.61 12.7938 67.61 10.7407ZM74.5998 12.1303C74.5998 10.6202 75.9391 9.77542 77.4543 9.77542C78.3278 9.77542 78.9686 10.0165 79.2021 10.1978V9.95577C79.2021 8.92879 78.3862 8.32514 77.5131 8.32514C76.8144 8.32514 76.1735 8.68771 75.94 9.29136L74.8333 8.80825C75.0659 8.20457 75.824 7.17759 77.5131 7.17759C79.0858 7.17759 80.4251 8.14384 80.4251 10.0763V14.1823H79.2606V13.2161H79.2021C78.8523 13.76 78.1539 14.3636 77.047 14.3636C75.7068 14.3646 74.5998 13.5189 74.5998 12.1303ZM79.2021 11.2239C79.2021 11.2239 78.6776 10.8015 77.6294 10.8015C76.3477 10.8015 75.824 11.5257 75.824 12.1303C75.824 12.8545 76.5224 13.2171 77.1633 13.2171C78.2115 13.2171 79.2021 12.3714 79.2021 11.2239ZM81.1823 12.4321L82.2892 11.949C82.639 12.7947 83.2796 13.2171 84.0368 13.2171C84.7939 13.2171 85.3185 12.8545 85.3185 12.2508C85.3185 11.8883 85.1437 11.5266 84.4453 11.3453L83.1057 11.0435C82.5236 10.8622 81.3582 10.3791 81.3582 9.17177C81.3582 7.96445 82.5812 7.17855 83.9204 7.17855C85.0274 7.17855 86.0172 7.72242 86.4254 8.74844L85.3772 9.23158C85.1446 8.56717 84.5038 8.32607 83.8629 8.32607C83.1645 8.32607 82.5812 8.6279 82.5812 9.17177C82.5812 9.59415 82.931 9.83618 83.4547 9.95672L84.7364 10.2586C86.0181 10.5604 86.5417 11.4061 86.5417 12.2518C86.5417 13.4591 85.4935 14.3656 83.9792 14.3656C82.4649 14.3656 81.5321 13.3984 81.1823 12.4321ZM17.9853 5.89773C18.4487 6.97529 18.6808 8.23259 18.6817 9.55009C18.6817 14.8192 14.5687 19.0108 9.52975 19.0108H9.18198L13.1203 11.8859C13.3524 11.4662 13.5254 11.0474 13.5836 10.5684V10.5081C13.641 10.2089 13.6993 9.84937 13.6993 9.55009C13.6993 7.99354 12.8881 6.676 11.7301 5.89773H17.9853ZM1.82523 4.51999L5.70708 11.4059L5.82269 11.5254C6.05391 11.8849 6.28607 12.1842 6.57556 12.4835C7.32844 13.2617 8.42908 13.801 9.58709 13.801C10.2817 13.801 10.9772 13.6212 11.5562 13.2617L8.42818 18.8904C3.91 18.3521 0.435089 14.4005 0.435089 9.55009C0.435089 7.69333 0.956734 5.95702 1.82523 4.51999ZM89.3953 5.30586V7.35889H90.9681V8.50641H89.3953V11.949C89.3953 12.7339 89.6864 13.0358 90.2688 13.0358C90.5023 13.0358 90.6761 13.0358 90.8509 12.9152L91.2583 14.002C90.9672 14.1226 90.6761 14.1833 90.2679 14.1833C88.9292 14.2431 88.1721 13.4582 88.1721 12.0695V8.50641H87.0075V7.35889H88.1721V5.30586H89.3953ZM12.8881 9.55009C12.8881 11.4662 11.3823 12.9634 9.58619 12.9634C7.73264 12.9634 6.28424 11.4068 6.28424 9.55009C6.28424 7.69333 7.79092 6.13678 9.58709 6.13678C11.3823 6.07654 12.8881 7.63404 12.8881 9.55009ZM9.58709 0.0893555C13.062 0.0893555 16.1318 2.18516 17.6394 5.17782H9.93575C9.58799 5.17782 9.24115 5.17782 8.89338 5.29734H8.83511C6.92333 5.5966 5.41758 7.39312 5.41758 9.48893V9.66866C5.41758 9.60937 5.41758 9.48988 5.35931 9.42964L2.23126 3.92145C3.9109 1.58663 6.57556 0.0893555 9.58709 0.0893555Z" fill="white"/></svg>