<svg xmlns:xlink="http://www.w3.org/1999/xlink" xmlns="http://www.w3.org/2000/svg" width="53" height="10" viewBox="0 0 53 10" fill="none"><path d="M1.03768 3.62268L0.471375 9.64894H3.53738L3.88222 5.98963H6.75304L6.40746 9.64894H9.47291L10.344 0.416016H7.27785L6.97634 3.62286L1.03768 3.62268Z" fill="white"/><path d="M4.14232 3.23852L4.40839 0.416361H1.34221L1.07577 3.23852H4.14232Z" fill="white"/><path d="M10.9981 2.60801L10.3653 9.64954H13.125L13.7572 2.60801H10.9981Z" fill="white"/><path d="M13.8264 2.21388L13.9959 0.416361H11.2363L11.0668 2.21388H13.8264Z" fill="white"/><path d="M17.7646 4.19212C17.9883 4.19212 18.2035 4.25639 18.3594 4.38621C18.5292 4.50153 18.6387 4.6701 18.6322 4.89101H21.141C21.2331 3.17062 19.3902 2.76938 17.8285 2.76938C16.3799 2.76938 14.3732 3.20935 14.2129 4.90404C14.1046 6.05502 14.8962 6.67548 16.9691 7.01115C18.2316 7.21774 18.4576 7.33489 18.4215 7.72234C18.3845 8.11071 17.8012 8.24073 17.4389 8.24073C17.1039 8.24073 16.847 8.16287 16.719 8.04643C16.5251 7.8786 16.432 7.68397 16.4405 7.45204H13.8062C13.6844 9.18401 15.4915 9.81769 17.1921 9.81769C18.9484 9.81769 20.919 9.31456 21.0939 7.45204C21.1977 6.35194 20.4376 5.84808 19.5434 5.57648C18.6499 5.2915 17.6107 5.24045 17.1678 5.05756C17.02 4.99493 16.861 4.90422 16.8797 4.70995C16.9207 4.26998 17.3742 4.19212 17.7646 4.19212Z" fill="white"/><path d="M24.0335 5.53712C24.2277 4.81215 24.7389 4.41167 25.5605 4.41167C26.2725 4.41167 26.7268 4.91682 26.6674 5.53712H24.0335ZM25.4652 2.76969C23.1793 2.76969 21.4962 4.36006 21.3128 6.31294C21.1021 8.55079 22.7248 9.8178 25.0367 9.8178C26.6821 9.8178 28.2649 9.14518 28.9594 7.69655H26.3805C26.1269 8.01993 25.6248 8.17471 25.1784 8.17471C24.3146 8.17471 23.8921 7.63265 23.8943 6.8695H29.1898C29.4368 4.25706 28.336 2.76969 25.4652 2.76969Z" fill="white"/><path d="M35.0815 2.76969C33.981 2.76969 33.2086 3.11839 32.6297 3.79139H32.6019L32.6814 2.93824H30.0202L29.3872 9.64943H32.1471L32.4813 6.10653C32.582 5.03232 33.2293 4.81215 33.7035 4.81215C34.5114 4.81215 34.5577 5.3557 34.4857 6.13188L34.1531 9.64943H36.9128L37.3459 5.04629C37.4915 3.50658 36.3757 2.76969 35.0815 2.76969Z" fill="white"/><path d="M41.4832 4.19212C41.7052 4.19212 41.9228 4.25639 42.078 4.38621C42.2478 4.50153 42.3578 4.6701 42.3503 4.89101H44.8596C44.9515 3.17062 43.1068 2.76938 41.5468 2.76938C40.0982 2.76938 38.0906 3.20935 37.9313 4.90404C37.8231 6.05502 38.6146 6.67548 40.6872 7.01115C41.9504 7.21774 42.176 7.33489 42.1394 7.72234C42.1024 8.11071 41.5194 8.24073 41.1569 8.24073C40.8223 8.24073 40.5651 8.16287 40.4362 8.04643C40.2434 7.8786 40.1501 7.68397 40.1581 7.45204H37.5239C37.4027 9.18401 39.211 9.81769 40.9102 9.81769C42.6668 9.81769 44.637 9.31456 44.8128 7.45204C44.9159 6.35194 44.1556 5.84808 43.2618 5.57648C42.3682 5.2915 41.3282 5.24045 40.8862 5.05756C40.7382 4.99493 40.5788 4.90422 40.5975 4.70995C40.6385 4.26998 41.0923 4.19212 41.4832 4.19212Z" fill="white"/><path d="M47.7522 5.53712C47.945 4.81215 48.458 4.41167 49.2792 4.41167C49.9904 4.41167 50.4449 4.91682 50.3856 5.53712H47.7522ZM49.1835 2.76969C46.898 2.76969 45.2153 4.36006 45.0319 6.31294C44.8208 8.55079 46.4429 9.8178 48.7564 9.8178C50.4011 9.8178 51.983 9.14518 52.6767 7.69655H50.0996C49.8449 8.01993 49.3442 8.17471 48.8976 8.17471C48.0331 8.17471 47.6102 7.63265 47.6136 6.8695H52.9078C53.1543 4.25706 52.055 2.76969 49.1835 2.76969Z" fill="white"/></svg>