<svg xmlns:xlink="http://www.w3.org/1999/xlink" xmlns="http://www.w3.org/2000/svg" width="39" height="18" viewBox="0 0 39 18" fill="none"><path fill-rule="evenodd" clip-rule="evenodd" d="M17.1718 9.04954C17.1718 13.7312 13.3716 17.5201 8.6926 17.5201C4.00635 17.5201 0.21344 13.7312 0.21344 9.04954C0.21344 4.36767 4.00635 0.575195 8.6926 0.575195C13.3716 0.575195 17.1718 4.36767 17.1718 9.04954ZM8.3515 12.7648V5.33055H9.03269V12.0963H10.7149V12.7648H8.3515ZM5.98501 7.35899C6.54729 7.35899 7.00054 6.90179 7.00054 6.34346C7.00054 5.78469 6.54729 5.32574 5.98501 5.32574C5.42273 5.32574 4.96949 5.78469 4.96949 6.34346C4.96949 6.90223 5.42273 7.35899 5.98501 7.35899ZM8.69475 1.94832C8.77526 1.94832 8.94375 1.95381 9.03238 1.9582V2.61876C8.94923 2.61437 8.76892 2.61437 8.69475 2.61437C6.97347 2.61437 5.35946 3.2837 4.14474 4.49689C2.92606 5.71118 2.25453 7.3322 2.25453 9.04581C2.25453 10.7693 2.92606 12.382 4.14474 13.5925C5.35946 14.8081 6.97347 15.4775 8.69475 15.4775C12.0952 15.4775 14.8879 12.8291 15.1113 9.48523C15.1143 9.46724 15.1143 9.39792 15.1143 9.38366H10.7214V8.73033H15.7905V9.04602C15.7905 10.9459 15.0488 12.7266 13.7083 14.0657C12.3681 15.4018 10.5869 16.14 8.69475 16.14C6.79533 16.14 5.01372 15.4018 3.67109 14.0657C2.33395 12.7266 1.59573 10.9459 1.59573 9.04602C1.59573 5.13464 4.78095 1.94832 8.69475 1.94832Z" fill="white"/><path d="M23.5486 3.42752H21.0006V14.4577H28.8265V12.3106H23.5486V3.42752ZM34.4316 10.2543H36.5067V12.1829C36.1241 12.3286 35.378 12.4738 34.6681 12.4738C32.3748 12.4738 31.6109 11.3091 31.6109 8.94348C31.6109 6.68756 32.3384 5.35744 34.6316 5.35744C35.906 5.35744 36.6339 5.75803 37.2337 6.52258L38.8179 5.0661C37.8531 3.68398 36.1601 3.2654 34.5772 3.2654C31.0092 3.2654 29.135 5.21264 29.135 8.92505C29.135 12.6195 30.8275 14.6213 34.5592 14.6213C36.2698 14.6213 37.9443 14.1848 38.8539 13.5479V8.19714H34.4316V10.2543Z" fill="white"/></svg>